<svg width="1200" height="820" viewBox="0 0 1200 820" fill="none" xmlns="http://www.w3.org/2000/svg">
  <rect width="1200" height="820" rx="32" fill="#FAFAFB"/>
  <rect x="42" y="42" width="1116" height="736" rx="24" fill="white" stroke="#E5E7EB" stroke-width="2"/>
  <rect x="78" y="86" width="208" height="648" rx="16" fill="#F3F4F6"/>
  <rect x="108" y="126" width="148" height="12" rx="6" fill="#D1D5DB"/>
  <rect x="108" y="160" width="112" height="12" rx="6" fill="#D1D5DB"/>
  <rect x="108" y="224" width="148" height="12" rx="6" fill="#D1D5DB"/>
  <rect x="108" y="258" width="136" height="12" rx="6" fill="#D1D5DB"/>
  <rect x="108" y="322" width="148" height="12" rx="6" fill="#D1D5DB"/>
  <rect x="108" y="356" width="120" height="12" rx="6" fill="#D1D5DB"/>
  <rect x="324" y="86" width="792" height="96" rx="16" fill="#EEF2FF"/>
  <rect x="358" y="120" width="320" height="14" rx="7" fill="#4F46E5" fill-opacity="0.45"/>
  <rect x="358" y="146" width="250" height="10" rx="5" fill="#818CF8" fill-opacity="0.45"/>
  <rect x="324" y="210" width="508" height="262" rx="16" fill="#F8FAFC" stroke="#E5E7EB" stroke-width="2"/>
  <path d="M372 406C412 346 456 368 498 332C538 296 575 316 622 280C664 249 712 252 762 232" stroke="#4F46E5" stroke-width="8" stroke-linecap="round"/>
  <circle cx="372" cy="406" r="10" fill="#4F46E5"/>
  <circle cx="498" cy="332" r="10" fill="#4F46E5"/>
  <circle cx="622" cy="280" r="10" fill="#4F46E5"/>
  <circle cx="762" cy="232" r="10" fill="#4F46E5"/>
  <rect x="856" y="210" width="260" height="262" rx="16" fill="#F8FAFC" stroke="#E5E7EB" stroke-width="2"/>
  <rect x="888" y="244" width="120" height="12" rx="6" fill="#D1D5DB"/>
  <rect x="888" y="270" width="190" height="10" rx="5" fill="#E5E7EB"/>
  <rect x="888" y="308" width="190" height="10" rx="5" fill="#E5E7EB"/>
  <rect x="888" y="346" width="160" height="10" rx="5" fill="#E5E7EB"/>
  <rect x="888" y="392" width="96" height="36" rx="10" fill="#4F46E5"/>
  <rect x="324" y="500" width="792" height="234" rx="16" fill="#F8FAFC" stroke="#E5E7EB" stroke-width="2"/>
  <rect x="358" y="534" width="220" height="12" rx="6" fill="#D1D5DB"/>
  <rect x="358" y="560" width="250" height="10" rx="5" fill="#E5E7EB"/>
  <rect x="358" y="598" width="728" height="20" rx="10" fill="#EEF2FF"/>
  <rect x="358" y="632" width="564" height="20" rx="10" fill="#E5E7EB"/>
</svg>
